<?xml version="1.0" encoding="utf-8"?>
<!-- Generator: Adobe Illustrator 16.0.0, SVG Export Plug-In . SVG Version: 6.00 Build 0)  -->
<!DOCTYPE svg PUBLIC "-//W3C//DTD SVG 1.1//EN" "http://www.w3.org/Graphics/SVG/1.1/DTD/svg11.dtd">
<svg version="1.1" id="Layer_1" xmlns="http://www.w3.org/2000/svg" xmlns:xlink="http://www.w3.org/1999/xlink" x="0px" y="0px"
	 width="46.014px" height="46.014px" viewBox="0 0 46.014 46.014" enable-background="new 0 0 46.014 46.014" xml:space="preserve">
<g>
	<defs>
		<rect id="SVGID_1_" y="0.014" width="46" height="46"/>
	</defs>
	<clipPath id="SVGID_2_">
		<use xlink:href="#SVGID_1_"  overflow="visible"/>
	</clipPath>
	<path clip-path="url(#SVGID_2_)" d="M5.905,0h34.204c3.248,0,5.905,2.657,5.905,5.905v34.203c0,3.247-2.657,5.906-5.905,5.906
		H5.905C2.657,46.014,0,43.355,0,40.107V5.905C0,2.657,2.657,0,5.905,0 M33.519,5.112c-1.14,0-2.071,0.932-2.071,2.071v4.958
		c0,1.141,0.932,2.073,2.071,2.073h5.2c1.142,0,2.072-0.932,2.072-2.073V7.183c0-1.139-0.931-2.071-2.072-2.071H33.519z
		 M40.813,19.459h-4.052c0.385,1.251,0.592,2.576,0.592,3.948c0,7.653-6.404,13.858-14.304,13.858
		c-7.898,0-14.302-6.205-14.302-13.858c0-1.372,0.207-2.697,0.59-3.948H5.112v19.436c0,1.006,0.824,1.829,1.83,1.829h32.042
		c1.005,0,1.829-0.823,1.829-1.829V19.459z M23.05,13.952c-5.104,0-9.241,4.01-9.241,8.955s4.137,8.954,9.241,8.954
		c5.104,0,9.242-4.009,9.242-8.954S28.154,13.952,23.05,13.952"/>
</g>
</svg>
